<svg width="50" height="50" viewBox="0 0 50 50" fill="none" xmlns="http://www.w3.org/2000/svg">
<path d="M3.90206 0.165469C1.95016 0.588462 0.421326 2.19391 0.104021 4.15506C0.0367141 4.56844 -0.00174712 11.4421 -0.00174712 25.0548C-0.00174712 47.3676 -0.030593 46.0314 0.594401 47.31C0.950167 48.0502 1.83478 48.9731 2.56554 49.3576C2.83477 49.5018 3.39245 49.7037 3.80591 49.8095C4.53667 50.0017 4.9309 50.0017 24.9884 50.0017C47.4017 50.0017 46.1036 50.0306 47.3151 49.4153C48.094 49.0308 49.0844 48.031 49.4497 47.2811C50.0267 46.0987 49.9978 47.2619 49.9978 25.0259C49.9978 6.52959 49.9786 4.54922 49.844 3.92434C49.4017 1.96319 47.9882 0.578849 45.9978 0.155856C44.9979 -0.055641 4.90206 -0.0460275 3.90206 0.165469ZM42.7094 23.4109C43.1229 23.4878 43.7767 23.6416 44.1806 23.7666L44.9017 23.9781V26.3045V28.631L43.969 28.1695C40.921 26.6698 37.0845 26.8717 36.1902 28.5829C36.1133 28.7271 36.0556 29.0444 36.0556 29.2847C36.0556 30.4479 36.8922 31.1593 39.7094 32.3995C42.1998 33.4954 43.2479 34.1299 44.2479 35.1489C45.4017 36.3121 45.8055 37.3792 45.8055 39.2346C45.8055 40.6478 45.6613 41.3112 45.094 42.4648C44.5844 43.5126 43.7863 44.2625 42.5652 44.8489C40.8825 45.6661 39.3056 45.9256 36.5075 45.8391C34.1614 45.7622 32.4787 45.4353 31.248 44.8105L30.9018 44.6278L30.9114 42.4359C30.9114 41.2342 30.8826 40.1383 30.8441 40.0133C30.7287 39.6769 30.8057 39.6673 31.1134 39.9845C31.8153 40.6767 33.6614 41.5227 35.0749 41.7918C35.921 41.9553 37.6806 41.9649 38.3825 41.8207C40.7094 41.3208 41.219 39.2731 39.3729 37.8695C38.8729 37.4946 37.4979 36.7832 36.2479 36.2545C34.046 35.3316 32.4787 34.1876 31.6326 32.8801C30.498 31.1209 30.4884 28.4099 31.6037 26.5641C32.7095 24.7471 34.6133 23.6704 37.4402 23.2763C38.3056 23.1513 41.8344 23.2378 42.7094 23.4109ZM29.0365 25.7277V27.7946H25.9115H22.7865V36.7351V45.6757L20.2673 45.6564L17.7385 45.6276L17.7096 36.7159L17.6904 27.7946L14.5847 27.7754L11.4885 27.7465L11.4597 25.8238C11.4501 24.7664 11.4597 23.8531 11.4789 23.7858C11.5174 23.6897 13.2674 23.6608 20.2865 23.6608H29.0365V25.7277Z" fill="#3178C6"/>
</svg>
