<svg width="470" height="259" viewBox="0 0 470 259" fill="none" xmlns="http://www.w3.org/2000/svg">
<path fill-rule="evenodd" clip-rule="evenodd" d="M43.5549 21.667C43.1879 22.033 42.8879 26.083 42.8879 30.667V39H39.348C34.226 39 28.303 42.416 25.139 47.196L22.388 51.353L22.075 125.426C21.86 176.14 22.104 201.088 22.849 204.536C23.95 209.639 26.78 213.572 31.642 216.759C34.082 218.358 39.8868 218.541 102.843 219L171.387 219.5L171.887 227.996L172.387 236.492L183.887 236.168C196.872 235.803 198.887 234.894 198.887 229.402C198.887 227.133 198.189 225.616 196.637 224.51C194.557 223.029 194.519 222.831 196.137 221.904C197.268 221.255 197.887 219.689 197.887 217.473C197.887 210.634 201.814 210.951 117.278 210.977C67.7798 210.992 40.094 210.639 37.667 209.961C30.466 207.95 30.888 213.015 30.888 128.679V52.802L33.95 49.942C36.688 47.385 37.8259 47.051 44.6989 46.791L52.3859 46.5L52.0609 42.75C51.8809 40.688 51.9849 39 52.2909 39C52.5969 39 53.7659 40.8 54.8879 43C56.0099 45.2 57.1359 47 57.3889 47C57.6419 47 58.9899 44.863 60.3829 42.25L62.9169 37.5L62.6519 42L62.3879 46.5L71.3879 46.742C79.2349 46.952 80.5799 46.738 81.8879 45.069C82.7129 44.017 84.7379 43.008 86.3879 42.828C88.7169 42.573 89.6088 43.003 90.3748 44.75C91.1998 46.63 92.1448 47 96.1248 47C98.7448 47 100.888 46.597 100.888 46.105C100.888 44.856 97.0568 32.556 94.7038 26.25L92.7438 21H86.3989H80.0529L76.3459 32.25C74.3069 38.438 72.3569 43.815 72.0129 44.199C71.6689 44.584 71.3609 39.634 71.3289 33.199L71.2689 21.5L67.1269 21.195C63.2319 20.908 62.8649 21.117 60.9749 24.695C57.2469 31.753 57.2979 31.742 54.4659 26.155C52.0089 21.305 51.6279 21 48.0379 21C45.9389 21 43.9209 21.3 43.5549 21.667ZM96.8878 21.996C96.8878 22.544 99.1378 26.146 101.888 30C106.286 36.163 106.888 37.609 106.888 42.004V47H270.464H434.043L436.966 49.923L439.889 52.846V128.701C439.889 212.351 440.246 207.737 433.611 209.927C431.811 210.521 427.649 210.893 424.363 210.753L418.388 210.5L418.1 219.159C417.785 228.666 416.697 230.671 412.438 229.602C410.056 229.004 409.952 228.634 409.675 219.74L409.388 210.5H405.388H401.388L401.072 214.933C400.776 219.069 400.676 219.209 399.572 217.03C396.427 210.821 387.261 208.414 379.625 211.792C377.112 212.903 374.286 214.988 373.345 216.424C371.064 219.905 371.24 227.641 373.676 230.969C379.739 239.251 395.18 238.642 399.584 229.946L400.78 227.585L401.789 230.24C404.964 238.591 421.223 239.055 425.432 230.915C426.233 229.366 426.888 226.052 426.888 223.55C426.888 219.009 426.896 219 430.421 219C437.97 219 445.654 212.962 447.897 205.267C448.663 202.637 448.903 178.831 448.692 126.426L448.389 51.353L445.638 47.196C444.125 44.91 441.105 42.131 438.928 41.02C435.005 39.018 433.513 39 275.427 39C187.68 39 115.888 38.732 115.888 38.405C115.888 38.077 118.363 34.216 121.388 29.825C124.413 25.433 126.888 21.651 126.888 21.42C126.888 21.189 124.642 21 121.897 21C117.295 21 116.73 21.272 114.647 24.488C113.405 26.406 112.035 27.981 111.604 27.988C111.173 27.994 109.891 26.425 108.755 24.5C106.842 21.257 106.331 21 101.789 21C99.0938 21 96.8878 21.448 96.8878 21.996ZM85.0689 31.911C83.4359 36.594 83.5419 37 86.3879 37C89.1719 37 89.3979 35.907 87.5239 31.512L86.2499 28.524L85.0689 31.911ZM404.888 59.8081L392.388 60.1161L386.145 69.3081C382.712 74.3641 378.791 79.8501 377.431 81.5001L374.959 84.5001L374.923 72.2211L374.887 59.9421L361.637 60.2211L348.387 60.5001V100V139.5L361.637 139.779L374.887 140.058V129.029C374.887 122.963 375.224 118.01 375.637 118.022C376.05 118.034 380.404 122.984 385.313 129.022L394.24 140H410.564H426.888V128V116L414.638 115.942L402.388 115.884L396.053 107.965L389.719 100.046L392.016 96.7731C397.027 89.6311 415.243 65.3661 417.191 63.2371C418.386 61.9301 418.866 60.6621 418.325 60.2371C417.81 59.8321 411.763 59.6391 404.888 59.8081ZM55.8889 61.1191C49.3759 63.7271 45.5819 70.0561 45.4699 78.5001C45.3579 86.9351 48.9969 93.8701 59.1849 104.632C66.8449 112.725 67.2019 113.297 65.4089 114.609C64.0489 115.603 60.2779 116 52.1969 116H40.888V128V140H63.7089H86.5289L91.9588 137.25C99.3238 133.519 102.283 128.077 101.476 119.746C100.68 111.543 96.8219 104.738 87.6039 95.2801C76.3149 83.6991 76.0048 83.8921 105.275 84.2321L128.388 84.5001L128.562 112L128.735 139.5H141.873H155.009L154.919 111.75L154.829 84.0001H167.89H180.95L180.669 72.2501L180.387 60.5001L119.388 60.3091C80.5648 60.1881 57.4789 60.4831 55.8889 61.1191ZM198.739 67.7501C197.324 72.0121 191.634 89.2251 186.095 106C180.557 122.775 175.716 137.3 175.338 138.277C174.697 139.939 175.617 140.037 189.436 139.777L204.221 139.5L206.692 132.75L209.163 126H220.869H232.574L234.941 132.952L237.308 139.904L252.195 140.202C260.383 140.366 267.26 140.21 267.478 139.857C267.695 139.503 261.914 121.391 254.63 99.6091L241.387 60.0051L221.349 60.0031L201.311 60.0001L198.739 67.7501ZM297.387 61.0391C281.528 64.2901 270.76 72.7541 265.829 85.8471C264.062 90.5391 263.763 93.1291 264.072 101.079C264.397 109.442 264.857 111.496 267.696 117.264C273.16 128.363 283.478 136.052 296.686 138.87C299.711 139.515 311.408 140 323.936 140H345.887V128.124V116.248L325.137 115.789C297.272 115.173 294.071 113.77 293.213 101.798C292.635 93.7441 294.725 89.3051 300.387 86.5621C303.842 84.8891 307.212 84.5671 325.137 84.1991L345.887 83.7731V71.8871V60.0001L323.637 60.1101C311.399 60.1701 299.587 60.5881 297.387 61.0391ZM216.08 93.2451C213.224 101.254 210.887 108.076 210.887 108.404C210.887 108.732 215.387 109 220.887 109C226.387 109 230.887 108.651 230.887 108.224C230.887 107.797 228.724 100.975 226.08 93.0651L221.273 78.6821L216.08 93.2451ZM57.7089 151.331C47.2599 154.288 41.724 161.741 41.653 172.943C41.556 188.575 50.2869 196.36 67.8879 196.335C81.9689 196.314 90.4498 190.242 92.9028 178.427C95.1948 167.387 90.7389 157.527 81.4189 153.015C75.7959 150.293 64.2689 149.474 57.7089 151.331ZM91.2658 151.196C91.0298 151.578 92.8288 157.428 95.2638 164.196C97.6988 170.963 101.204 180.775 103.054 186L106.417 195.5L118.501 195.78L130.586 196.059L136.903 178.28C146.528 151.189 145.713 151.465 145.806 175.265L145.888 196.03L175.137 195.765L204.387 195.5L204.683 188.724L204.98 181.949L211.571 188.974L218.162 196H234.487H250.812L251.099 186.855L251.387 177.709L258.081 177.775C265.567 177.848 267.224 176.799 266.709 172.31C266.39 169.526 266.314 169.497 258.573 169.207C251.16 168.929 250.775 168.801 251.073 166.707C251.376 164.578 251.792 164.5 262.887 164.492L274.387 164.484V157.568V150.652L255.387 150.752L236.387 150.851L236.112 166.425L235.836 182H229.517C224.601 182 222.819 181.582 221.496 180.12C219.878 178.332 219.916 178.21 222.271 177.618C223.633 177.277 226.354 175.482 228.318 173.63C231.465 170.662 231.887 169.686 231.883 165.382C231.879 159.271 229.062 154.389 224.422 152.45C222.04 151.455 216.051 150.942 204.694 150.76L188.387 150.5L188.112 166.25L187.836 182H174.292C160.921 182 160.752 181.972 161.067 179.807C161.361 177.796 161.967 177.61 168.387 177.557L175.387 177.5L175.694 173.25L176.002 169H168.375C161.037 169 160.76 168.915 161.067 166.75C161.377 164.569 161.738 164.499 172.887 164.455L184.387 164.41V157.523V150.636L156.499 150.789C141.161 150.873 128.443 151.112 128.235 151.32C128.027 151.528 125.757 158.749 123.19 167.367C120.624 175.985 118.229 182.69 117.87 182.268C117.51 181.846 115.283 174.75 112.92 166.5C110.558 158.25 108.511 151.364 108.371 151.198C107.823 150.546 91.6678 150.543 91.2658 151.196ZM277.261 151.468C277.033 152.063 276.968 162.213 277.116 174.025L277.387 195.5H296.887H316.387V189V182.5L304.162 182.219L291.937 181.939L291.662 166.409L291.387 150.88L284.531 150.633C280.319 150.482 277.516 150.804 277.261 151.468ZM332.708 151.331C327.629 152.768 321.731 156.782 319.343 160.427C316.519 164.737 315.386 173.182 316.789 179.454C319.327 190.793 327.47 196.27 341.887 196.337C358.68 196.415 367.61 188.686 367.811 173.899C367.95 163.686 364.514 157.365 356.659 153.385C350.506 150.266 339.733 149.342 332.708 151.331ZM364.274 151.184C363.884 151.813 371.057 176.436 375.727 190.5L377.387 195.5H384.848H392.31L394.349 187.253C395.471 182.717 396.619 179.004 396.9 179.003C397.182 179.001 398.263 182.038 399.302 185.75C402.299 196.462 401.938 196.129 410.173 195.793L417.342 195.5L422.542 175C425.401 163.725 427.774 153.6 427.815 152.5C427.883 150.671 427.288 150.511 420.843 150.629C416.968 150.699 413.68 150.924 413.536 151.129C413.392 151.333 412.389 155.316 411.307 159.98L409.34 168.459L406.364 159.48L403.388 150.5L397.888 150.366C390.31 150.182 389.215 150.614 388.526 154.062C388.195 155.713 387.177 159.633 386.265 162.773L384.605 168.481L381.496 159.491L378.387 150.5L371.552 150.483C367.793 150.473 364.518 150.788 364.274 151.184ZM204.887 166.048V170.095L211.137 169.798C217.206 169.509 217.397 169.416 217.717 166.609C218.138 162.919 216.678 162.034 210.137 162.015L204.887 162V166.048ZM62.9079 164.284C55.8159 167.873 56.6499 181.91 64.0509 183.536C72.5739 185.408 77.5819 180.85 76.5979 172.117C75.7459 164.558 69.4669 160.965 62.9079 164.284ZM337.387 164.208C333.595 166.382 332.814 168.276 333.182 174.399C333.463 179.079 334.008 180.68 335.822 182.149C339.139 184.835 345.112 184.571 348.581 181.585C351.064 179.448 351.381 178.511 351.332 173.451C351.283 168.487 350.913 167.419 348.526 165.366C345.536 162.794 340.724 162.294 337.387 164.208ZM200.23 211.558C200.004 212.14 199.948 217.967 200.104 224.506L200.387 236.395L212.072 236.589C224.568 236.795 224.618 236.775 224.471 231.5L224.387 228.5L216.637 228.208C208.368 227.896 206.068 226.319 213.137 225.807C216.618 225.556 217.387 225.138 217.387 223.5C217.387 221.862 216.618 221.444 213.137 221.193C206.475 220.71 208.165 219 215.304 219C222.218 219 222.676 218.634 222.086 213.58L221.712 210.379L211.176 210.439C204.744 210.476 200.479 210.912 200.23 211.558ZM237.284 211.167C237.001 211.625 237.041 212.44 237.374 212.979C237.707 213.517 239.356 218.58 241.038 224.229C242.721 229.878 244.462 234.95 244.907 235.5C245.573 236.322 248.682 236.54 253.125 236.077C253.531 236.035 254.151 234.2 254.503 232C255.286 227.104 256.45 226.855 257.302 231.4C258.096 235.629 259.436 236.684 263.887 236.581L267.387 236.5L270.033 226.5L272.68 216.5L273.033 226.5L273.387 236.5L276.887 236.356C278.812 236.277 280.724 236.164 281.137 236.106C281.55 236.048 281.887 232.148 281.887 227.44V218.879L285.637 219.19L289.387 219.5L289.455 227.05C289.492 231.203 289.823 235.088 290.192 235.684C290.56 236.28 292.33 236.694 294.124 236.606L297.387 236.444L297.676 227.722L297.965 219H302.387H306.809L307.098 227.75L307.387 236.5H311.387H315.387L315.692 231.75C315.981 227.249 316.148 227 318.887 227C321.618 227 321.794 227.257 322.082 231.672L322.387 236.345L326.387 236.422L330.387 236.5V223.5V210.5H326.387C322.396 210.5 322.386 210.51 322.08 214.75C321.794 218.697 321.566 219 318.887 219C316.228 219 315.978 218.68 315.694 214.911L315.387 210.822L290.494 210.834C263.634 210.847 263.933 210.786 263.902 216.25C263.881 220.155 262.102 219.662 261.328 215.536C260.542 211.347 259.318 210.285 255.416 210.407C252.377 210.502 249.934 213.508 249.902 217.191C249.871 220.681 248.038 219.855 247.397 216.062C247.031 213.891 246.203 211.701 245.559 211.194C244.107 210.053 237.985 210.032 237.284 211.167ZM343.887 211.111C343.887 211.582 346.348 215.398 349.357 219.591C354.121 226.231 354.779 227.712 354.456 231.067C354.027 235.517 355.317 237.031 359.185 236.619C362.819 236.231 363.166 235.734 363.285 230.752C363.368 227.251 364.348 225.145 368.637 219.249C371.525 215.279 373.887 211.614 373.887 211.104C373.887 210.259 364.143 210.288 363.512 211.135C363.362 211.336 362.221 212.975 360.975 214.778L358.711 218.055L356.028 214.354C353.642 211.064 352.818 210.63 348.615 210.453C346.015 210.344 343.887 210.64 343.887 211.111ZM181.077 218.75C181.427 220.57 184.82 221.278 186.933 219.971C188.894 218.759 187.012 217 183.755 217C181.422 217 180.817 217.396 181.077 218.75ZM382.244 220.577C379.705 224.453 381.369 228.398 385.72 228.818C389.828 229.215 391.888 227.588 391.888 223.949C391.888 218.107 385.358 215.825 382.244 220.577ZM180.887 229C180.887 230.605 181.554 231 184.265 231C187.55 231 190.536 228.983 189.212 227.658C188.85 227.296 186.829 227 184.72 227C181.554 227 180.887 227.348 180.887 229Z" fill="#E5B000"/>
<path fill-rule="evenodd" clip-rule="evenodd" d="M39.0566 0.56901C36.8526 0.94501 33.7176 1.94201 32.0916 2.78301C26.4956 5.67601 20.8956 14.202 20.8956 19.826C20.8956 21.556 20.0336 22.778 18.1146 23.771C13.9916 25.903 6.45664 34.372 3.22964 40.501L0.395642 45.884L0.116642 126.78C-0.191358 216.303 -0.375358 213.407 6.22864 223.015C10.6466 229.445 18.3356 235.617 25.5516 238.527L31.3956 240.884L90.3956 241.229L149.396 241.574L151.929 246.706C153.797 250.492 155.745 252.633 159.348 254.862L164.234 257.884L195.501 258.174C220.269 258.404 227.457 258.179 230.082 257.09C232.817 255.956 233.921 255.941 236.396 257.005C238.698 257.994 250.378 258.304 286.626 258.339C327.763 258.378 334.374 258.176 337.876 256.775C341.57 255.297 342.222 255.297 345.916 256.775C350.517 258.616 364.229 258.968 368.475 257.354C370.415 256.616 372.208 256.672 374.79 257.548C379.186 259.041 391.002 259.059 396.231 257.582C398.983 256.804 400.819 256.804 402.731 257.581C404.197 258.176 409.015 258.668 413.438 258.673C420.093 258.681 422.549 258.203 427.673 255.904C434.071 253.032 441.286 246.399 444.255 240.656C445.121 238.983 447.782 236.469 450.17 235.069C455.389 232.011 462.025 225.014 464.715 219.733C469.972 209.412 469.897 210.726 469.884 129.452C469.871 48.754 469.873 48.784 464.892 39.093C459.53 28.662 446.947 19.657 435.396 17.983C433.746 17.744 368.159 17.511 289.646 17.466C172.99 17.399 146.896 17.146 146.896 16.08C146.896 13.099 140.826 5.42701 136.427 2.84901L131.803 0.139017L87.4336 0.0120186C63.0306 -0.0589814 41.2616 0.19201 39.0566 0.56901ZM42.8956 30.755V39.126L38.0156 39.774C32.6306 40.488 27.6906 43.385 24.4876 47.707C22.4126 50.506 22.3936 51.171 22.1276 127.961C21.8656 203.637 21.9046 205.482 23.8546 209.304C24.9526 211.455 27.3226 214.266 29.1226 215.55L32.3956 217.884L101.646 218.154L170.896 218.424V227.404V236.384H181.941C192.335 236.384 193.132 236.239 195.441 233.929C198.542 230.829 198.537 228.934 195.419 225.816C192.951 223.348 192.949 223.331 194.919 221.361C197.535 218.745 197.413 216.81 194.441 213.839L191.987 211.384L113.691 211.352C30.3496 211.318 34.1366 211.544 30.5996 206.411C29.0316 204.136 28.8956 197.995 28.8996 129.411C28.9026 57.087 28.9616 54.789 30.8686 51.661C33.0746 48.042 34.6226 47.505 43.8956 47.14L50.3956 46.884L50.5236 42.884C50.7236 36.641 50.8366 36.592 53.4616 41.634C54.8216 44.247 56.1756 46.384 56.4706 46.384C56.7666 46.384 57.9206 44.322 59.0356 41.801C61.3716 36.519 62.3956 36.799 62.3956 42.718C62.3956 46.813 62.4556 46.884 65.8956 46.884H69.3956L69.6766 34.634L69.9576 22.384H65.9436C62.1306 22.384 61.8016 22.635 59.3956 27.384C58.0016 30.134 56.6516 32.384 56.3956 32.384C56.1396 32.384 54.7896 30.134 53.3956 27.384C50.9946 22.645 50.6536 22.384 46.8786 22.384H42.8956V30.755ZM75.5446 34.134C73.5086 40.597 71.8546 46.193 71.8696 46.571C71.8836 46.949 73.7006 47.234 75.9066 47.203C79.2746 47.157 80.0126 46.767 80.5146 44.766C81.0166 42.764 81.7376 42.384 85.0257 42.384C88.2127 42.384 89.1466 42.841 90.0596 44.845C91.0156 46.942 91.8326 47.292 95.5956 47.217C98.4076 47.16 99.8616 46.72 99.6006 46.006C99.3746 45.389 97.5116 39.822 95.4596 33.634L91.7307 22.384H85.4886H79.2466L75.5446 34.134ZM101.451 30.289C106.108 37.049 106.896 38.859 106.896 42.789V47.384H269.962C379.89 47.384 433.654 47.72 434.951 48.414C439.97 51.1 439.896 49.874 439.896 129.819V204.352L436.981 207.618C434.233 210.698 433.595 210.913 425.809 211.384L417.552 211.884L417.793 219.204C418.058 227.224 416.402 231.384 412.944 231.384C409.037 231.384 407.896 228.756 407.896 219.752V211.263L404.186 211.574L400.476 211.884L400.76 217.134C400.916 220.021 400.792 222.384 400.484 222.384C400.175 222.384 399.269 220.819 398.47 218.906C393.809 207.753 373.48 209.423 371.282 221.14C369.642 229.884 375.481 236.615 384.707 236.615C393.076 236.615 396.561 234.323 399.507 226.884C400.185 225.169 400.349 225.33 400.651 228.011C400.845 229.73 402.141 232.205 403.531 233.511C405.685 235.534 407.072 235.884 412.949 235.884C422.083 235.884 424.182 233.99 424.896 225.107L425.396 218.884L431.041 218.277C437.806 217.55 442.161 214.745 444.919 209.34C446.837 205.579 446.896 203.2 446.896 129.392C446.896 67.405 446.643 52.715 445.532 50.055C443.794 45.895 438.884 41.753 434.115 40.425C431.621 39.73 378.384 39.392 272.492 39.399C185.644 39.404 114.431 39.253 114.241 39.062C114.051 38.872 115.738 36.087 117.989 32.872C126.027 21.397 125.789 22.384 120.52 22.384C116.358 22.384 115.697 22.72 113.655 25.872C112.413 27.79 111.095 29.365 110.728 29.372C110.36 29.378 109.086 27.809 107.896 25.884C105.904 22.66 105.349 22.384 100.869 22.384H96.0056L101.451 30.289ZM83.8886 30.901C81.9546 35.99 82.1757 37.846 84.7607 38.215C88.2127 38.708 89.0946 37.274 87.7726 33.321C86.0906 28.294 85.1126 27.684 83.8886 30.901ZM56.6166 61.594C45.1366 64.64 41.3556 80.295 49.0376 92.97C50.8336 95.934 55.6306 101.752 59.6986 105.9C69.4056 115.797 69.0176 116.384 52.7736 116.384H40.8956V128.452V140.519L63.6456 140.202C85.7666 139.893 86.5186 139.815 90.8566 137.384C93.3106 136.009 96.3916 133.309 97.7036 131.384C99.8006 128.307 100.036 127.03 99.6536 120.817C99.0846 111.55 95.9696 105.855 85.7006 95.307C79.3306 88.763 78.0316 86.925 78.9736 85.79C79.9166 84.654 84.7176 84.384 104.003 84.384H127.864L128.13 112.134L128.396 139.884H140.896H153.396L153.662 112.165L153.928 84.445L166.162 84.165L178.396 83.884L178.678 72.134L178.959 60.384L119.678 60.487C83.5706 60.55 58.9186 60.983 56.6166 61.594ZM200.578 61.134C200.338 61.546 198.268 67.734 195.979 74.884C193.689 82.034 188.009 99.403 183.356 113.482C178.703 127.56 174.896 139.373 174.896 139.732C174.896 141.016 201.729 140.458 202.587 139.156C203.032 138.48 204.334 135.218 205.48 131.906L207.563 125.884L219.636 125.604L231.709 125.324L234.135 132.604L236.56 139.884L251.228 140.161C262.044 140.365 265.896 140.125 265.896 139.249C265.896 138.218 253.964 102.206 243.16 70.634L239.653 60.384H220.333C209.708 60.384 200.818 60.722 200.578 61.134ZM299.396 61.484C274.486 65.041 260.075 83.139 263.789 106.203C265.998 119.916 272.831 129.077 285.251 134.975C294.327 139.286 302.044 140.313 325.646 140.353L343.896 140.384V128.455V116.526L322.646 116.205C303.364 115.914 301.072 115.694 297.896 113.834C293.378 111.187 291.486 107.228 291.468 100.384C291.451 93.65 293.883 89.126 298.852 86.65C301.822 85.17 305.758 84.832 323.146 84.562L343.896 84.239V72.312V60.384L324.646 60.506C314.059 60.573 302.696 61.013 299.396 61.484ZM348.134 100.104L348.396 139.884H360.896H373.396V128.635C373.396 122.449 373.709 117.386 374.092 117.385C374.475 117.385 379.16 122.559 384.503 128.884L394.218 140.384H409.557H424.896V128.33V116.276L414.146 116.388C408.233 116.45 402.905 116.475 402.306 116.442C401.706 116.41 398.208 112.792 394.533 108.402L387.851 100.419L402.374 81.066C410.361 70.422 416.896 61.414 416.896 61.048C416.896 60.683 411.357 60.384 404.588 60.384H392.279L383.534 72.884C378.725 79.759 374.476 85.385 374.093 85.385C373.709 85.386 373.396 79.873 373.396 73.135V60.884L360.634 60.604L347.873 60.324L348.134 100.104ZM219.477 79.491C219.221 80.257 216.735 87.212 213.953 94.945C211.172 102.679 208.896 109.316 208.896 109.695C208.896 110.074 213.846 110.384 219.896 110.384C225.946 110.384 230.896 110.03 230.896 109.597C230.896 108.441 221.03 79.185 220.443 78.597C220.168 78.323 219.733 78.725 219.477 79.491ZM54.4256 152.978C46.5906 155.847 42.2306 161.856 41.2716 171.109C40.1806 181.632 43.8786 189.211 52.2716 193.656C55.7176 195.481 58.0396 195.84 66.3956 195.84C74.7516 195.84 77.0736 195.481 80.5196 193.656C88.3636 189.502 91.9016 183.026 91.8676 172.884C91.8376 163.525 85.7036 155.141 76.9736 152.525C71.7546 150.962 59.2476 151.213 54.4256 152.978ZM90.9436 152.634C90.9706 153.322 94.2656 163.109 98.2676 174.384L105.543 194.884L117.519 195.163L129.495 195.442L136.252 176.163C139.968 165.56 143.321 156.209 143.702 155.384C144.084 154.559 144.518 163.221 144.666 174.634L144.937 195.384H173.916H202.896V188.384C202.896 184.534 203.079 181.384 203.302 181.384C203.526 181.384 206.749 184.534 210.466 188.384L217.224 195.384H233.511H249.798L249.597 186.383L249.396 177.382L257.206 177.383L265.017 177.384L264.706 173.634L264.396 169.884L257.178 170.09C249.641 170.305 248.348 169.687 249.399 166.375C249.981 164.54 250.926 164.384 261.463 164.384H272.896V157.884V151.384H254.131H235.367L235.381 167.134L235.396 182.884L228.896 182.944C224.575 182.984 221.809 182.513 220.646 181.539C218.082 179.393 218.505 177.629 221.755 176.915C223.328 176.569 225.916 174.929 227.505 173.268C229.93 170.736 230.384 169.451 230.322 165.292C230.236 159.48 227.928 155.738 222.825 153.136C219.977 151.684 216.64 151.387 203.146 151.386L186.896 151.384V167.135V182.887L173.146 182.685L159.396 182.484L159.084 179.977C158.776 177.51 158.894 177.466 166.584 177.177L174.396 176.884V173.433V169.983L166.896 169.933C159.471 169.884 159.393 169.856 159.08 167.134L158.763 164.384H170.83H182.896V157.868V151.352L155.19 151.618L127.483 151.884L126.3 155.884C125.649 158.084 123.543 165.267 121.62 171.846C119.697 178.425 117.718 183.943 117.222 184.109C116.726 184.274 115.519 181.366 114.539 177.647C113.559 173.927 111.404 166.497 109.749 161.134L106.741 151.384H98.8176C93.1206 151.384 90.9096 151.735 90.9436 152.634ZM276.896 173.384V195.384H295.944H314.991L314.694 189.134L314.396 182.884L302.896 182.786L291.396 182.688L291.121 167.036L290.845 151.384H283.871H276.896V173.384ZM330.739 152.359C326.004 153.789 321.91 156.756 319.123 160.778C316.671 164.316 316.396 165.579 316.396 173.299C316.396 180.796 316.734 182.458 319.059 186.413C323.242 193.529 328.816 195.884 341.475 195.884C350.959 195.884 351.845 195.704 356.475 192.843C363.548 188.472 366.416 182.955 366.329 173.884C366.186 158.854 357.843 151.36 341.396 151.492C336.996 151.527 332.2 151.917 330.739 152.359ZM364.581 156.092C365.413 158.728 367.371 165.159 368.93 170.384C370.489 175.609 372.825 183.259 374.12 187.384L376.476 194.884L383.627 195.177L390.778 195.469L391.804 191.757C392.367 189.715 393.362 185.661 394.014 182.749C394.666 179.836 395.501 177.64 395.87 177.868C396.24 178.096 397.621 182.131 398.94 186.834L401.338 195.384H408.579H415.819L416.806 191.634C417.349 189.572 419.636 180.459 421.888 171.384C424.14 162.309 426.219 154.096 426.507 153.134C426.971 151.583 426.228 151.384 419.982 151.384C412.037 151.384 412.961 150.313 410.542 162.326C409.331 168.336 406.896 171.9 406.896 167.662C406.896 166.623 405.843 162.648 404.557 158.829L402.218 151.884L395.616 151.59L389.014 151.295L387.958 155.09C387.376 157.177 386.346 161.25 385.669 164.141C384.992 167.032 384.046 169.267 383.566 169.107C383.087 168.948 381.484 165.007 380.003 160.35L377.312 151.884L370.189 151.592L363.066 151.3L364.581 156.092ZM202.896 166.291V170.199L208.646 170.603C215.444 171.08 217.896 170.138 217.896 167.049C217.896 163.422 215.96 162.384 209.196 162.384H202.896V166.291ZM59.5016 165.267C55.5296 169.656 55.7056 179.092 59.8286 182.823C61.0396 183.919 63.4666 184.588 66.3906 184.633C72.9976 184.733 76.0946 181.531 76.2006 174.492C76.3156 166.853 73.8146 163.972 66.7386 163.59C62.3426 163.353 60.9396 163.678 59.5016 165.267ZM333.988 165.786C328.889 171.214 330.785 182.431 337.097 184.174C342.084 185.551 346.629 184.538 349.013 181.518C351.957 177.787 351.322 167.957 347.961 165.235C344.47 162.409 336.88 162.708 333.988 165.786ZM199.86 211.884C199.841 212.159 199.808 217.672 199.787 224.134L199.75 235.884L211.323 236.166L222.896 236.447V232.958V229.468L215.146 229.176C209.054 228.946 207.396 228.563 207.396 227.384C207.396 226.331 208.68 225.792 211.708 225.573C215.055 225.332 215.949 224.9 215.706 223.638C215.483 222.477 214.258 221.995 211.413 221.949C208.451 221.901 207.345 221.436 207.091 220.134C206.792 218.6 207.623 218.384 213.823 218.384H220.896V214.884V211.384H210.396C204.621 211.384 199.88 211.609 199.86 211.884ZM236.896 211.967C236.896 212.354 238.553 218.028 240.578 224.576L244.26 236.481L248.328 236.183C252.323 235.889 252.412 235.799 253.314 231.134C253.818 228.521 254.521 226.384 254.875 226.384C255.228 226.384 256.101 228.658 256.813 231.436L258.108 236.489L262.207 236.186L266.307 235.884L268.166 227.884C269.188 223.484 270.242 218.818 270.509 217.516C271.483 212.756 272.332 216.725 272.364 226.185L272.396 235.884L276.146 236.194L279.896 236.505V227.444V218.384H284.396H288.896V227.384V236.384H292.896H296.896V227.329V218.274L301.646 218.579L306.396 218.884L306.455 227.384L306.515 235.884L310.205 236.194L313.896 236.505V231.944C313.896 227.414 313.918 227.384 317.339 227.384C320.674 227.384 320.791 227.517 321.089 231.634C321.387 235.759 321.506 235.893 325.146 236.194L328.896 236.505V223.944V211.384H324.896H320.896V215.947C320.896 220.493 320.884 220.51 317.646 220.197C314.593 219.903 314.377 219.625 314.088 215.617L313.779 211.349L289.097 211.617L264.414 211.884L263.547 216.634C263.07 219.247 262.391 221.382 262.038 221.379C261.685 221.376 260.721 219.238 259.896 216.629C258.502 212.22 258.139 211.863 254.759 211.58C251.15 211.279 251.112 211.317 249.909 216.33C249.242 219.11 248.37 221.384 247.972 221.384C247.573 221.384 246.586 219.247 245.778 216.634C244.403 212.191 244.069 211.864 240.602 211.574C238.564 211.403 236.896 211.58 236.896 211.967ZM343.896 211.971C343.896 212.293 346.146 215.812 348.896 219.79C353.176 225.981 353.896 227.705 353.896 231.764V236.505L357.646 236.194C361.353 235.888 361.402 235.827 361.942 230.884C362.362 227.048 363.584 224.339 367.192 219.245C369.779 215.593 371.896 212.33 371.896 211.995C371.896 211.659 369.908 211.384 367.478 211.384C363.507 211.384 362.84 211.738 360.896 214.884C359.706 216.809 358.356 218.384 357.896 218.384C357.436 218.384 356.086 216.809 354.896 214.884C352.952 211.738 352.285 211.384 348.314 211.384C345.884 211.384 343.896 211.648 343.896 211.971ZM178.896 219.384C178.896 221.254 179.389 221.463 183.146 221.191C186.12 220.976 187.396 220.434 187.396 219.384C187.396 218.334 186.12 217.792 183.146 217.577C179.389 217.305 178.896 217.514 178.896 219.384ZM381.551 219.213C379.457 221.526 379.412 226.757 381.467 228.813C383.327 230.672 387.997 230.883 389.696 229.184C390.356 228.524 390.896 226.344 390.896 224.339C390.896 218.261 385.226 215.151 381.551 219.213ZM179.61 227.004C179.217 227.396 178.896 228.567 178.896 229.605C178.896 231.234 179.549 231.452 183.646 231.189C187.628 230.933 188.396 230.561 188.396 228.884C188.396 227.263 187.63 226.828 184.36 226.587C182.14 226.424 180.002 226.611 179.61 227.004Z" fill="black"/>
</svg>
