<svg aria-hidden="true" style="position: absolute; width: 0; height: 0; overflow: hidden;" version="1.1" xmlns="http://www.w3.org/2000/svg" xmlns:xlink="http://www.w3.org/1999/xlink">
<defs>
<symbol id="icon-stackoverflow" viewBox="0 0 58 32">
<path fill="#e5b000" style="fill: var(--color1, #e5b000)" d="M5.381 2.677c0.045-0.045 0.295-0.082 0.554-0.082 0.444 0 0.491 0.038 0.794 0.637 0.35 0.69 0.344 0.692 0.804-0.18 0.234-0.442 0.279-0.468 0.76-0.432l0.512 0.038 0.007 1.445c0.004 0.795 0.042 1.407 0.085 1.359s0.283-0.712 0.535-1.476l0.458-1.39h1.568l0.242 0.649c0.291 0.779 0.764 2.299 0.764 2.453 0 0.061-0.265 0.111-0.588 0.111-0.492 0-0.608-0.046-0.71-0.278-0.095-0.216-0.205-0.269-0.493-0.237-0.204 0.022-0.454 0.147-0.556 0.277-0.162 0.206-0.328 0.233-1.297 0.207l-1.112-0.030 0.033-0.556 0.033-0.556-0.313 0.587c-0.172 0.323-0.339 0.587-0.37 0.587s-0.17-0.222-0.309-0.494c-0.139-0.272-0.283-0.494-0.321-0.494s-0.051 0.209-0.028 0.463l0.040 0.463-0.95 0.036c-0.849 0.032-0.99 0.073-1.328 0.389l-0.378 0.353v9.375c0 10.42-0.052 9.794 0.838 10.043 0.3 0.084 3.72 0.127 9.836 0.126 10.445-0.003 9.959-0.042 9.959 0.803 0 0.274-0.076 0.467-0.216 0.547-0.2 0.115-0.195 0.139 0.062 0.322 0.192 0.137 0.278 0.324 0.278 0.604 0 0.679-0.249 0.791-1.853 0.836l-1.421 0.040-0.124-2.099-8.469-0.062c-7.778-0.057-8.496-0.079-8.797-0.277-0.601-0.394-0.95-0.88-1.086-1.51-0.092-0.426-0.122-3.508-0.096-9.774l0.039-9.152 0.34-0.514c0.391-0.591 1.123-1.013 1.756-1.013h0.437v-1.030c0-0.566 0.037-1.067 0.082-1.112zM11.971 2.718c0-0.068 0.273-0.123 0.606-0.123 0.561 0 0.624 0.032 0.861 0.432 0.14 0.238 0.299 0.432 0.352 0.431s0.223-0.195 0.376-0.432c0.257-0.397 0.327-0.431 0.896-0.431 0.339 0 0.617 0.023 0.617 0.052s-0.306 0.496-0.68 1.038c-0.374 0.543-0.68 1.020-0.68 1.060s8.87 0.074 19.711 0.074c19.532 0 19.716 0.002 20.201 0.25 0.269 0.137 0.642 0.481 0.829 0.763l0.34 0.514 0.037 9.275c0.026 6.475-0.004 9.416-0.098 9.741-0.277 0.951-1.227 1.697-2.159 1.697-0.436 0-0.437 0.001-0.437 0.562 0 0.309-0.081 0.719-0.18 0.91-0.52 1.006-2.529 0.948-2.921-0.083l-0.125-0.328-0.148 0.292c-0.544 1.074-2.452 1.15-3.201 0.126-0.301-0.411-0.323-1.367-0.041-1.797 0.116-0.177 0.465-0.435 0.776-0.572 0.943-0.417 2.076-0.12 2.465 0.647 0.136 0.269 0.149 0.252 0.185-0.259l0.039-0.548h0.988l0.035 1.142c0.034 1.099 0.047 1.145 0.341 1.218 0.526 0.132 0.661-0.116 0.7-1.29l0.036-1.070 0.738 0.031c0.406 0.017 0.92-0.029 1.143-0.102 0.82-0.271 0.776 0.299 0.776-10.036v-9.372l-0.722-0.722h-40.421v-0.617c0-0.543-0.074-0.722-0.618-1.483-0.34-0.476-0.618-0.921-0.618-0.989zM10.51 3.943c-0.202 0.579-0.189 0.629 0.163 0.629 0.344 0 0.372-0.135 0.14-0.678l-0.157-0.369-0.146 0.418zM50.025 7.389c0.849-0.021 1.597 0.003 1.66 0.053 0.067 0.053 0.008 0.209-0.14 0.371-0.241 0.263-2.491 3.261-3.11 4.143l-0.284 0.404 1.565 1.957 3.027 0.014v2.965h-4.034l-1.103-1.356c-0.607-0.746-1.144-1.358-1.196-1.359s-0.093 0.61-0.093 1.36v1.363l-3.274-0.069v-9.761l3.274-0.069 0.009 3.034 0.305-0.371c0.168-0.204 0.652-0.882 1.077-1.506l0.771-1.136 1.544-0.038zM6.905 7.551c0.196-0.079 3.049-0.115 7.845-0.1l7.537 0.024 0.035 1.452 0.035 1.452h-3.227l0.022 6.857h-3.246l-0.021-3.398-0.021-3.398-2.856-0.033c-3.616-0.042-3.578-0.066-2.183 1.365 1.139 1.169 1.616 2.009 1.714 3.023 0.1 1.029-0.266 1.702-1.176 2.163l-0.671 0.34h-5.639v-2.965h1.397c0.998 0 1.464-0.049 1.632-0.172 0.222-0.162 0.177-0.233-0.769-1.233-1.259-1.33-1.708-2.187-1.695-3.229 0.014-1.043 0.483-1.825 1.287-2.147zM24.555 8.371l0.318-0.958 4.951 0.001 1.636 4.893c0.9 2.691 1.614 4.929 1.587 4.973s-0.877 0.063-1.888 0.043l-1.839-0.037-0.585-1.718h-2.892l-0.611 1.668-1.827 0.034c-1.707 0.032-1.821 0.020-1.742-0.185 0.047-0.121 0.645-1.915 1.329-3.988s1.387-4.199 1.562-4.726zM36.743 7.542c0.272-0.056 1.731-0.107 3.243-0.115l2.749-0.014v2.937l-2.564 0.053c-2.215 0.045-2.631 0.085-3.058 0.292-0.7 0.339-0.958 0.887-0.886 1.882 0.106 1.479 0.502 1.652 3.944 1.729l2.564 0.057v2.935h-2.712c-1.548 0-2.993-0.060-3.367-0.14-1.632-0.348-2.907-1.298-3.582-2.669-0.351-0.713-0.408-0.966-0.448-2-0.038-0.982-0.001-1.302 0.217-1.882 0.609-1.618 1.94-2.663 3.899-3.065zM26.697 11.521c-0.353 0.99-0.642 1.832-0.642 1.873s0.556 0.074 1.236 0.074c0.68 0 1.236-0.043 1.236-0.096s-0.267-0.896-0.594-1.873l-0.594-1.777-0.642 1.799zM7.13 18.697c0.811-0.229 2.235-0.128 2.929 0.208 1.152 0.557 1.702 1.776 1.419 3.14-0.303 1.46-1.351 2.21-3.091 2.213-2.175 0.003-3.253-0.959-3.241-2.89 0.009-1.384 0.693-2.305 1.984-2.67zM11.276 18.681c0.050-0.081 2.046-0.080 2.113 0 0.017 0.020 0.27 0.871 0.562 1.891s0.567 1.896 0.612 1.948c0.044 0.052 0.34-0.776 0.657-1.841s0.598-1.957 0.623-1.983 1.597-0.055 3.492-0.066l3.446-0.019v1.702l-1.421 0.006c-1.377 0.005-1.422 0.014-1.46 0.284-0.038 0.267-0.004 0.278 0.903 0.278h0.942l-0.038 0.525-0.038 0.525-0.865 0.007c-0.793 0.007-0.868 0.030-0.904 0.278-0.039 0.267-0.018 0.271 1.634 0.271h1.673l0.034-1.946 0.034-1.946 2.015 0.032c1.403 0.023 2.143 0.086 2.437 0.209 0.573 0.24 0.921 0.843 0.922 1.598 0 0.532-0.052 0.652-0.44 1.019-0.243 0.229-0.579 0.451-0.747 0.493-0.291 0.073-0.296 0.088-0.096 0.309 0.163 0.181 0.384 0.232 0.991 0.232h0.781l0.034-1.924 0.034-1.924 4.695-0.025v1.709l-1.421 0.001c-1.371 0.001-1.422 0.011-1.46 0.274-0.037 0.259 0.011 0.275 0.927 0.309 0.956 0.036 0.966 0.039 1.005 0.383 0.064 0.555-0.141 0.684-1.066 0.675l-0.827-0.008-0.036 1.13-0.035 1.13h-4.034l-1.629-1.736-0.037 0.837-0.037 0.837-7.228 0.065-0.010-2.566c-0.012-2.941 0.089-2.975-1.1 0.372l-0.78 2.197-2.986-0.069-0.415-1.174c-0.229-0.646-0.662-1.858-0.963-2.694s-0.523-1.559-0.494-1.606zM34.256 18.714c0.032-0.082 0.378-0.122 0.898-0.103l0.847 0.031 0.034 1.919 0.034 1.919 3.021 0.069v1.606h-4.819l-0.033-2.653c-0.018-1.459-0.010-2.713 0.018-2.787zM41.107 18.697c0.868-0.246 2.199-0.132 2.959 0.254 0.971 0.492 1.395 1.273 1.378 2.535-0.025 1.827-1.128 2.782-3.203 2.772-1.781-0.008-2.787-0.685-3.101-2.086-0.173-0.775-0.033-1.818 0.316-2.351 0.295-0.45 1.024-0.946 1.651-1.124zM45.007 18.679c-0.048 0.078 0.838 3.12 1.415 4.858l0.205 0.618h1.844l0.252-1.019c0.139-0.56 0.28-1.019 0.315-1.019s0.168 0.375 0.297 0.834c0.37 1.323 0.326 1.282 1.343 1.241l0.886-0.036 0.642-2.533c0.353-1.393 0.646-2.644 0.651-2.78 0.008-0.226-0.065-0.246-0.861-0.231-0.479 0.009-0.885 0.036-0.903 0.062s-0.142 0.517-0.275 1.094l-0.243 1.048-0.735-2.219-0.68-0.017c-0.936-0.023-1.072 0.031-1.157 0.457-0.041 0.204-0.167 0.688-0.279 1.076l-0.205 0.705-0.768-2.222-0.844-0.002c-0.464-0.001-0.869 0.038-0.899 0.087zM25.314 20.516v0.5l0.772-0.037c0.75-0.036 0.773-0.047 0.813-0.394 0.052-0.456-0.128-0.565-0.937-0.568l-0.649-0.002v0.5zM7.772 20.298c-0.876 0.443-0.773 2.178 0.141 2.379 1.053 0.231 1.672-0.332 1.55-1.411-0.105-0.934-0.881-1.378-1.691-0.968zM41.685 20.288c-0.468 0.269-0.565 0.503-0.52 1.259 0.035 0.578 0.102 0.776 0.326 0.958 0.41 0.332 1.148 0.299 1.576-0.070 0.307-0.264 0.346-0.38 0.34-1.005-0.006-0.613-0.052-0.745-0.347-0.999-0.369-0.318-0.964-0.38-1.376-0.143zM24.739 26.138c-0.028 0.072-0.035 0.792-0.016 1.6l0.035 1.469 1.444 0.024c1.544 0.025 1.55 0.023 1.532-0.629l-0.010-0.371-0.958-0.036c-1.022-0.039-1.306-0.233-0.432-0.297 0.43-0.031 0.525-0.083 0.525-0.285s-0.095-0.254-0.525-0.285c-0.823-0.060-0.614-0.271 0.268-0.271 0.854 0 0.911-0.045 0.838-0.67l-0.046-0.395-1.302 0.007c-0.795 0.005-1.322 0.058-1.352 0.138zM29.317 26.090c-0.035 0.057-0.030 0.157 0.011 0.224s0.245 0.692 0.453 1.39c0.208 0.698 0.423 1.325 0.478 1.393 0.082 0.102 0.466 0.128 1.015 0.071 0.050-0.005 0.127-0.232 0.17-0.504 0.097-0.605 0.241-0.636 0.346-0.074 0.098 0.523 0.264 0.653 0.814 0.64l0.432-0.010 0.654-2.471 0.044 1.236 0.044 1.236 0.432-0.018c0.238-0.010 0.474-0.024 0.525-0.031s0.093-0.489 0.093-1.071v-1.058l0.927 0.077 0.008 0.933c0.005 0.513 0.045 0.993 0.091 1.067s0.264 0.125 0.486 0.114l0.403-0.020 0.071-2.155h1.093l0.071 2.162h0.988l0.038-0.587c0.036-0.556 0.056-0.587 0.395-0.587s0.359 0.032 0.395 0.577l0.038 0.577 0.988 0.019v-3.212h-0.494c-0.493 0-0.494 0.001-0.532 0.525-0.035 0.488-0.063 0.525-0.395 0.525-0.329 0-0.359-0.040-0.395-0.505l-0.038-0.505-3.076 0.001c-3.319 0.002-3.282-0.006-3.285 0.669-0.003 0.482-0.222 0.422-0.318-0.088-0.097-0.518-0.248-0.649-0.73-0.634-0.375 0.012-0.677 0.383-0.681 0.838-0.004 0.431-0.23 0.329-0.309-0.14-0.045-0.268-0.148-0.539-0.227-0.601-0.179-0.141-0.936-0.144-1.022-0.003zM42.488 26.083c0 0.058 0.304 0.53 0.676 1.048 0.589 0.82 0.67 1.003 0.63 1.418-0.053 0.55 0.106 0.737 0.584 0.686 0.449-0.048 0.492-0.109 0.507-0.725 0.010-0.433 0.131-0.693 0.661-1.421 0.357-0.491 0.649-0.943 0.649-1.006 0-0.104-1.204-0.101-1.282 0.004-0.019 0.025-0.16 0.227-0.313 0.45l-0.28 0.405-0.331-0.457c-0.295-0.407-0.397-0.46-0.916-0.482-0.321-0.013-0.584 0.023-0.584 0.081zM22.372 27.027c0.043 0.225 0.462 0.312 0.724 0.151 0.242-0.15 0.010-0.367-0.393-0.367-0.288 0-0.363 0.049-0.331 0.216zM47.227 27.253c-0.314 0.479-0.108 0.966 0.429 1.018 0.508 0.049 0.762-0.152 0.762-0.602 0-0.722-0.807-1.004-1.192-0.417zM22.349 28.293c0 0.198 0.082 0.247 0.417 0.247 0.406 0 0.775-0.249 0.611-0.413-0.045-0.045-0.294-0.081-0.555-0.081-0.391 0-0.474 0.043-0.474 0.247z"></path>
<path fill="#000" style="fill: var(--color2, #000)" d="M4.826 0.070c0.272-0.047 2.962-0.078 5.977-0.069l5.482 0.016 0.571 0.335c0.544 0.319 1.293 1.266 1.293 1.635 0 0.132 3.224 0.163 17.637 0.171 9.7 0.006 17.804 0.034 18.008 0.064 1.427 0.207 2.982 1.319 3.644 2.608 0.615 1.197 0.615 1.194 0.617 11.164 0.002 10.042 0.011 9.879-0.639 11.154-0.332 0.652-1.152 1.517-1.797 1.895-0.295 0.173-0.624 0.484-0.731 0.69-0.367 0.71-1.258 1.529-2.049 1.884-0.633 0.284-0.937 0.343-1.759 0.342-0.546-0.001-1.142-0.061-1.323-0.135-0.236-0.096-0.463-0.096-0.803 0-0.646 0.182-2.106 0.18-2.649-0.004-0.319-0.108-0.541-0.115-0.78-0.024-0.525 0.199-2.219 0.156-2.787-0.072-0.456-0.183-0.537-0.183-0.993 0-0.433 0.173-1.249 0.198-6.332 0.193-4.479-0.004-5.922-0.043-6.206-0.165-0.306-0.131-0.442-0.13-0.78 0.011-0.324 0.135-1.212 0.162-4.273 0.134l-3.863-0.036-0.604-0.373c-0.445-0.275-0.686-0.54-0.917-1.008l-0.313-0.634-14.579-0.085-0.722-0.291c-0.892-0.36-1.842-1.122-2.387-1.917-0.816-1.187-0.793-0.829-0.755-11.89l0.034-9.995 0.35-0.665c0.399-0.757 1.33-1.804 1.839-2.067 0.237-0.123 0.344-0.274 0.344-0.487 0-0.695 0.692-1.748 1.383-2.106 0.201-0.104 0.588-0.227 0.861-0.274zM5.3 3.8v1.034l-0.603 0.080c-0.665 0.088-1.276 0.446-1.671 0.98-0.256 0.346-0.259 0.428-0.292 9.916-0.032 9.35-0.028 9.578 0.213 10.050 0.136 0.266 0.428 0.613 0.651 0.772l0.404 0.288 17.112 0.067v2.219h1.365c1.284 0 1.383-0.018 1.668-0.303 0.383-0.383 0.383-0.617-0.003-1.002-0.305-0.305-0.305-0.307-0.062-0.55 0.323-0.323 0.308-0.562-0.059-0.929l-0.303-0.303-9.674-0.004c-10.297-0.004-9.829 0.024-10.266-0.61-0.194-0.281-0.211-1.040-0.21-9.514 0-8.936 0.008-9.22 0.243-9.606 0.273-0.447 0.464-0.513 1.609-0.559l0.803-0.032 0.016-0.494c0.025-0.771 0.039-0.777 0.363-0.154 0.168 0.323 0.335 0.587 0.372 0.587s0.179-0.255 0.317-0.566c0.289-0.653 0.415-0.618 0.415 0.113 0 0.506 0.007 0.515 0.432 0.515h0.432l0.069-3.027h-0.496c-0.471 0-0.512 0.031-0.809 0.618-0.172 0.34-0.339 0.618-0.371 0.618s-0.198-0.278-0.371-0.618c-0.297-0.586-0.339-0.618-0.805-0.618h-0.492v1.034zM9.334 4.217c-0.252 0.799-0.456 1.49-0.454 1.537s0.226 0.082 0.499 0.078c0.416-0.006 0.507-0.054 0.569-0.301s0.151-0.294 0.557-0.294c0.394 0 0.509 0.056 0.622 0.304 0.118 0.259 0.219 0.302 0.684 0.293 0.347-0.007 0.527-0.061 0.495-0.15-0.028-0.076-0.258-0.764-0.512-1.529l-0.461-1.39h-1.542l-0.457 1.452zM12.534 3.742c0.575 0.835 0.673 1.059 0.673 1.544v0.568h20.147c13.582 0 20.224 0.042 20.385 0.127 0.62 0.332 0.611 0.18 0.611 10.058v9.209l-0.36 0.404c-0.34 0.381-0.418 0.407-1.38 0.465l-1.020 0.062 0.030 0.904c0.033 0.991-0.172 1.505-0.599 1.505-0.483 0-0.624-0.325-0.624-1.437v-1.049l-0.917 0.077 0.035 0.649c0.019 0.357 0.004 0.649-0.034 0.649s-0.15-0.193-0.249-0.43c-0.576-1.378-3.088-1.172-3.359 0.276-0.203 1.080 0.519 1.912 1.659 1.912 1.034 0 1.465-0.283 1.829-1.202 0.084-0.212 0.104-0.192 0.141 0.139 0.024 0.212 0.184 0.518 0.356 0.68 0.266 0.25 0.438 0.293 1.164 0.293 1.129 0 1.388-0.234 1.476-1.332l0.062-0.769 0.697-0.075c0.836-0.090 1.374-0.436 1.715-1.104 0.237-0.465 0.244-0.759 0.244-9.878 0-7.659-0.031-9.474-0.169-9.802-0.215-0.514-0.821-1.026-1.411-1.19-0.308-0.086-6.886-0.128-19.969-0.127-10.73 0.001-19.529-0.018-19.552-0.042s0.185-0.368 0.463-0.765c0.993-1.418 0.964-1.296 0.313-1.296-0.514 0-0.596 0.042-0.848 0.431-0.153 0.237-0.316 0.432-0.362 0.432s-0.203-0.193-0.35-0.431c-0.246-0.398-0.315-0.432-0.868-0.432h-0.601l0.673 0.977zM10.365 3.818c-0.239 0.629-0.212 0.858 0.108 0.904 0.427 0.061 0.535-0.116 0.372-0.605-0.208-0.621-0.329-0.696-0.48-0.299zM6.995 7.61c-1.418 0.376-1.886 2.311-0.936 3.877 0.222 0.366 0.815 1.085 1.317 1.598 1.199 1.223 1.151 1.295-0.856 1.295h-1.468v2.982l2.811-0.039c2.733-0.038 2.826-0.048 3.362-0.348 0.303-0.17 0.684-0.503 0.846-0.741 0.259-0.38 0.288-0.538 0.241-1.306-0.070-1.145-0.455-1.849-1.724-3.152-0.787-0.809-0.948-1.036-0.831-1.176s0.71-0.174 3.092-0.174h2.948l0.066 6.857h3.089l0.033-3.425 0.033-3.425 3.023-0.069 0.035-1.452 0.035-1.452-7.324 0.013c-4.461 0.008-7.507 0.061-7.791 0.137zM24.782 7.553c-0.030 0.051-0.285 0.815-0.568 1.699s-0.985 3.029-1.56 4.769c-0.575 1.739-1.045 3.199-1.045 3.243 0 0.159 3.315 0.090 3.421-0.071 0.055-0.084 0.216-0.487 0.357-0.896l0.257-0.744 2.983-0.069 0.599 1.799 1.812 0.034c1.336 0.025 1.812-0.004 1.812-0.113 0-0.127-1.474-4.577-2.809-8.478l-0.433-1.266h-2.387c-1.313 0-2.411 0.042-2.441 0.093zM36.991 7.596c-3.078 0.439-4.858 2.676-4.399 5.525 0.273 1.694 1.117 2.826 2.652 3.555 1.121 0.533 2.075 0.66 4.991 0.664l2.255 0.004v-2.948l-2.625-0.040c-2.382-0.036-2.666-0.063-3.058-0.293-0.558-0.327-0.792-0.816-0.794-1.662-0.002-0.832 0.298-1.391 0.912-1.697 0.367-0.183 0.853-0.225 3.002-0.258l2.564-0.040v-2.947l-2.378 0.015c-1.308 0.008-2.712 0.063-3.12 0.121zM43.013 12.368l0.032 4.915h3.089v-1.39c0-0.764 0.039-1.39 0.086-1.39s0.626 0.639 1.286 1.421l1.2 1.421h3.79v-2.979l-1.328 0.014c-0.731 0.008-1.389 0.011-1.463 0.007s-0.506-0.451-0.96-0.993l-0.826-0.986 1.794-2.391c0.987-1.315 1.794-2.428 1.794-2.473s-0.684-0.082-1.521-0.082h-1.521l-1.080 1.544c-0.594 0.849-1.119 1.545-1.166 1.545s-0.086-0.681-0.086-1.514v-1.514l-3.153-0.069 0.032 4.915zM27.117 9.821c-0.032 0.095-0.339 0.954-0.683 1.909s-0.625 1.776-0.625 1.822 0.612 0.085 1.359 0.085c0.747 0 1.359-0.044 1.359-0.097 0-0.143-1.219-3.757-1.291-3.83-0.034-0.034-0.088 0.016-0.119 0.11zM6.724 18.901c-0.968 0.354-1.507 1.097-1.625 2.24-0.135 1.3 0.322 2.237 1.359 2.786 0.426 0.225 0.713 0.27 1.745 0.27s1.319-0.044 1.745-0.27c0.969-0.513 1.406-1.313 1.402-2.566-0.004-1.156-0.762-2.192-1.84-2.515-0.645-0.193-2.19-0.162-2.786 0.056zM11.236 18.858c0.003 0.085 0.41 1.294 0.905 2.687l0.899 2.533 2.959 0.069 0.835-2.382c0.459-1.31 0.873-2.465 0.92-2.567s0.101 0.968 0.119 2.378l0.033 2.564h7.161v-0.865c0-0.476 0.023-0.865 0.050-0.865s0.426 0.389 0.885 0.865l0.835 0.865h4.025l-0.050-2.224 1.93 0-0.038-0.463-0.038-0.463-0.892 0.025c-0.931 0.027-1.091-0.050-0.961-0.459 0.072-0.227 0.189-0.246 1.491-0.246h1.413v-1.606h-4.637l0.002 1.946 0.002 1.946-0.803 0.007c-0.534 0.005-0.876-0.053-1.019-0.174-0.317-0.265-0.265-0.483 0.137-0.571 0.194-0.043 0.514-0.245 0.71-0.451 0.3-0.313 0.356-0.472 0.348-0.985-0.011-0.718-0.296-1.18-0.926-1.502-0.352-0.179-0.764-0.216-2.431-0.216l-2.008-0v3.892l-3.398-0.050-0.039-0.31c-0.038-0.305-0.023-0.31 0.927-0.346l0.965-0.036v-0.853l-0.927-0.006c-0.917-0.006-0.927-0.009-0.966-0.346l-0.039-0.34h2.982v-1.61l-6.846 0.066-0.146 0.494c-0.080 0.272-0.341 1.159-0.578 1.972s-0.482 1.495-0.543 1.515c-0.061 0.020-0.21-0.339-0.332-0.798s-0.387-1.378-0.592-2.040l-0.372-1.205h-0.979c-0.704 0-0.977 0.043-0.973 0.154zM34.211 21.422v2.718h4.707l-0.037-0.772-0.037-0.772-2.842-0.024-0.034-1.934-0.034-1.934h-1.723v2.718zM40.864 18.824c-0.585 0.177-1.091 0.543-1.435 1.040-0.303 0.437-0.337 0.593-0.337 1.547 0 0.926 0.042 1.132 0.329 1.62 0.517 0.879 1.206 1.17 2.77 1.17 1.172 0 1.281-0.022 1.853-0.376 0.874-0.54 1.228-1.222 1.217-2.342-0.018-1.857-1.048-2.783-3.081-2.767-0.544 0.004-1.136 0.052-1.317 0.107zM45.045 19.285c0.103 0.326 0.345 1.12 0.537 1.766s0.481 1.591 0.641 2.1l0.291 0.927 1.767 0.072 0.127-0.459c0.070-0.252 0.193-0.753 0.273-1.113s0.184-0.631 0.229-0.603c0.046 0.028 0.216 0.527 0.379 1.108l0.296 1.056h1.789l0.122-0.463c0.067-0.255 0.35-1.381 0.628-2.502s0.535-2.136 0.571-2.255c0.057-0.192-0.034-0.216-0.806-0.216-0.982 0-0.867-0.132-1.166 1.352-0.15 0.743-0.45 1.183-0.45 0.659 0-0.128-0.13-0.619-0.289-1.091l-0.289-0.858-1.631-0.073-0.13 0.469c-0.072 0.258-0.199 0.761-0.283 1.118s-0.201 0.633-0.26 0.614c-0.059-0.020-0.257-0.507-0.44-1.082l-0.332-1.046-1.76-0.072 0.187 0.592zM25.068 20.546v0.483l0.71 0.050c0.84 0.059 1.143-0.057 1.143-0.439 0-0.448-0.239-0.576-1.075-0.576h-0.778v0.483zM7.352 20.419c-0.491 0.542-0.469 1.708 0.040 2.169 0.15 0.135 0.449 0.218 0.811 0.224 0.816 0.012 1.199-0.383 1.212-1.253 0.014-0.944-0.295-1.3-1.169-1.347-0.543-0.029-0.716 0.011-0.894 0.207zM41.265 20.483c-0.63 0.671-0.396 2.057 0.384 2.272 0.616 0.17 1.178 0.045 1.472-0.328 0.364-0.461 0.285-1.675-0.13-2.012-0.431-0.349-1.369-0.312-1.726 0.068zM24.693 26.179c-0.002 0.034-0.006 0.715-0.009 1.514l-0.005 1.452 2.86 0.070v-0.862l-0.958-0.036c-0.753-0.028-0.958-0.076-0.958-0.221 0-0.13 0.159-0.197 0.533-0.224 0.414-0.030 0.524-0.083 0.494-0.239-0.028-0.143-0.179-0.203-0.53-0.209-0.366-0.006-0.503-0.063-0.534-0.224-0.037-0.19 0.066-0.216 0.832-0.216h0.874v-0.865h-1.297c-0.713 0-1.299 0.028-1.302 0.062zM29.269 26.189c0 0.048 0.205 0.749 0.455 1.558l0.455 1.471 0.503-0.037c0.494-0.036 0.505-0.047 0.616-0.624 0.062-0.323 0.149-0.587 0.193-0.587s0.151 0.281 0.239 0.624l0.16 0.624 1.013-0.075 0.23-0.988c0.126-0.544 0.257-1.12 0.289-1.281 0.12-0.588 0.225-0.098 0.229 1.071l0.004 1.198 0.927 0.077v-2.239h1.112v2.224h0.988v-2.238l1.174 0.075 0.007 1.050 0.007 1.050 0.912 0.077v-0.564c0-0.56 0.003-0.563 0.425-0.563 0.412 0 0.426 0.016 0.463 0.525s0.052 0.526 0.501 0.563l0.463 0.038v-3.104h-0.988v0.564c0 0.562-0.001 0.564-0.402 0.525-0.377-0.036-0.404-0.071-0.44-0.566l-0.038-0.527-6.099 0.066-0.107 0.587c-0.059 0.323-0.143 0.587-0.186 0.586s-0.163-0.265-0.265-0.587c-0.172-0.545-0.217-0.589-0.635-0.624-0.446-0.037-0.451-0.032-0.599 0.587-0.082 0.343-0.19 0.624-0.239 0.624s-0.171-0.264-0.271-0.587c-0.17-0.549-0.211-0.589-0.64-0.625-0.252-0.021-0.458 0.001-0.458 0.049zM42.489 26.189c0 0.040 0.278 0.475 0.618 0.966 0.529 0.765 0.618 0.978 0.618 1.479v0.586l0.463-0.038c0.458-0.038 0.464-0.045 0.531-0.656 0.052-0.474 0.203-0.809 0.649-1.438 0.32-0.451 0.581-0.854 0.581-0.896s-0.246-0.076-0.546-0.076c-0.491 0-0.573 0.044-0.813 0.432-0.147 0.238-0.314 0.432-0.371 0.432s-0.224-0.195-0.371-0.432c-0.24-0.389-0.323-0.432-0.813-0.432-0.3 0-0.546 0.033-0.546 0.073zM22.103 27.105c0 0.231 0.061 0.257 0.525 0.223 0.367-0.027 0.525-0.094 0.525-0.223s-0.158-0.197-0.525-0.223c-0.464-0.034-0.525-0.008-0.525 0.223zM47.141 27.084c-0.259 0.286-0.264 0.932-0.010 1.186 0.23 0.23 0.807 0.256 1.017 0.046 0.082-0.082 0.148-0.351 0.148-0.599 0-0.751-0.701-1.135-1.155-0.633zM22.191 28.047c-0.049 0.048-0.088 0.193-0.088 0.321 0 0.201 0.081 0.228 0.587 0.196 0.492-0.032 0.587-0.078 0.587-0.285 0-0.2-0.095-0.254-0.499-0.284-0.274-0.020-0.538 0.003-0.587 0.052z"></path>
</symbol>
</defs>
</svg>
